<?xml version="1.0" standalone="no"?>
<!DOCTYPE svg PUBLIC "-//W3C//DTD SVG 20010904//EN"
 "http://www.w3.org/TR/2001/REC-SVG-20010904/DTD/svg10.dtd">
<svg version="1.0" xmlns="http://www.w3.org/2000/svg"
 width="800.000000pt" height="800.000000pt" viewBox="0 0 800.000000 800.000000"
 preserveAspectRatio="xMidYMid meet">
<metadata>
Created by potrace 1.14, written by Peter Selinger 2001-2017
</metadata>
<g transform="translate(0.000000,800.000000) scale(0.100000,-0.100000)"
fill="#000000" stroke="none">
<path d="M3785 7494 c-200 -13 -425 -49 -645 -104 -473 -118 -894 -326 -1302
-640 -155 -120 -445 -407 -571 -566 -318 -402 -535 -839 -657 -1324 -149 -593
-146 -1184 11 -1775 35 -130 101 -326 139 -410 15 -33 31 -71 35 -85 25 -80
190 -377 308 -555 347 -521 869 -961 1457 -1227 69 -31 157 -68 195 -82 39
-13 95 -33 125 -44 101 -36 227 -72 325 -92 53 -11 100 -22 104 -24 3 -2 90
-17 191 -32 168 -25 212 -27 485 -28 296 -1 394 6 590 40 521 90 921 250 1380
550 258 168 575 459 779 713 168 211 378 559 481 801 397 928 377 1991 -56
2897 -151 317 -393 667 -629 908 -195 200 -355 336 -556 471 -480 325 -963
509 -1534 585 -141 18 -517 32 -655 23z m2245 -2816 l0 -1273 -727 -727 -728
-728 -360 0 -361 0 -224 -225 -224 -225 -228 0 -228 0 0 225 0 225 -407 2
-408 3 -3 1627 -2 1627 90 362 c50 198 93 365 96 370 3 5 776 9 1860 9 l1854
0 0 -1272z"/>
<path d="M2680 4265 l0 -1315 405 0 405 0 0 -272 0 -273 273 273 272 272 500
0 500 0 318 318 317 318 0 997 0 997 -1495 0 -1495 0 0 -1315z m1358 48 l2
-543 -185 0 -185 0 0 538 c0 296 3 542 7 546 4 3 86 5 182 4 l176 -3 3 -542z
m992 2 l0 -545 -180 0 -180 0 0 545 0 545 180 0 180 0 0 -545z"/>
</g>
</svg>
